<svg id="Layer_1" data-name="Layer 1" xmlns="http://www.w3.org/2000/svg" viewBox="0 0 699.57 163.2"><defs><style>.cls-1{fill:#b81f2f;}.cls-2{fill:#818282;}.cls-3{fill:#231f20;}</style></defs><title>Artboard 1</title><path class="cls-1" d="M63.5,30.17c-2.1.21-4.23.51-6.37.92s-4.29.93-6.43,1.54S46.4,34,44.26,34.81s-4.28,1.77-6.4,2.82A77,77,0,0,0,19.37,50.41,66.85,66.85,0,0,0,6.5,66.8,51.44,51.44,0,0,0,.33,85.15a38.47,38.47,0,0,0,2,18.46A35.37,35.37,0,0,0,8.6,114.14a38.26,38.26,0,0,0,9.51,7.93,46.56,46.56,0,0,0,12.18,5,57,57,0,0,0,14.15,1.76,51.42,51.42,0,0,1-.78-13.22,58.09,58.09,0,0,1,2.48-13.07A66.45,66.45,0,0,1,51.53,90a73.52,73.52,0,0,1,8-11.57c-.12-.21-.24-.42-.35-.63l-.34-.64-.33-.65-.31-.66a40,40,0,0,1-3.4-11.41,42.77,42.77,0,0,1,0-11.69,50.93,50.93,0,0,1,3-11.56A60.87,60.87,0,0,1,63.5,30.17"/><path class="cls-1" d="M71.38,29.88A54.41,54.41,0,0,0,65.66,40a44.57,44.57,0,0,0-3.09,10.68,37.33,37.33,0,0,0-.16,10.81,34.79,34.79,0,0,0,3.11,10.53q2.27-2.16,4.74-4.19T75.39,64q2.65-1.87,5.52-3.57c1.9-1.13,3.87-2.2,5.89-3.21q2.78-1.37,5.58-2.54c1.88-.77,3.76-1.48,5.64-2.11s3.78-1.2,5.68-1.7,3.8-.93,5.69-1.3a35.75,35.75,0,0,0-6.9-8.4,39.65,39.65,0,0,0-9-6.07A47.85,47.85,0,0,0,83,31.32a57.71,57.71,0,0,0-11.61-1.44"/><path class="cls-1" d="M120.77,54.79a43.1,43.1,0,0,1,1.78,9.79,48,48,0,0,1-.47,10.26,55.63,55.63,0,0,1-2.7,10.45,64,64,0,0,1-4.84,10.35c2.39-.16,4.81-.44,7.24-.84s4.88-.93,7.32-1.59,4.89-1.45,7.31-2.36,4.83-2,7.21-3.15q3.19-1.59,6.14-3.41c2-1.21,3.84-2.48,5.63-3.82s3.47-2.74,5.07-4.2a63.56,63.56,0,0,0,4.5-4.49A46.35,46.35,0,0,0,156,64a52.76,52.76,0,0,0-10.68-5.41,59.7,59.7,0,0,0-11.88-3.07,67.76,67.76,0,0,0-12.64-.74"/><path class="cls-1" d="M112.24,55.6q-2.82.43-5.66,1.1t-5.67,1.55c-1.88.6-3.76,1.28-5.62,2s-3.72,1.58-5.56,2.5q-3,1.5-5.84,3.21c-1.88,1.14-3.68,2.35-5.41,3.61s-3.39,2.59-5,4-3.09,2.82-4.51,4.3a37.92,37.92,0,0,0,6.74,7,44.07,44.07,0,0,0,8.57,5.4A52.73,52.73,0,0,0,94.4,93.93a61.11,61.11,0,0,0,11.26,1.73,58.19,58.19,0,0,0,5.26-10.09,49,49,0,0,0,2.9-10.28,41.54,41.54,0,0,0,.47-10.11,36.81,36.81,0,0,0-2.05-9.58"/><path class="cls-1" d="M169.52,77.88q-2.28,2.33-4.82,4.5t-5.33,4.2c-1.87,1.35-3.81,2.64-5.84,3.86s-4.13,2.38-6.31,3.47a90.59,90.59,0,0,1-8.82,3.81,88.76,88.76,0,0,1-9,2.8,86.86,86.86,0,0,1-8.95,1.78,83.28,83.28,0,0,1-8.81.79l-.54,0h-1.61a77.8,77.8,0,0,1-6,7,85.36,85.36,0,0,1-7,6.48,86.43,86.43,0,0,1-8,5.84,90.67,90.67,0,0,1-8.85,5c-2,1-4,1.89-6,2.72s-4,1.55-6,2.21-4,1.23-6,1.72-4,.9-6,1.23a43.13,43.13,0,0,0,7.87,11.69,47.33,47.33,0,0,0,11.33,8.79,55.46,55.46,0,0,0,14.09,5.5,65.18,65.18,0,0,0,16,1.84,71.08,71.08,0,0,0,8.19-.53,74,74,0,0,0,8.33-1.51,78.15,78.15,0,0,0,16.55-6,75.25,75.25,0,0,0,21.35-15.77,63.68,63.68,0,0,0,12.92-20.16,50.16,50.16,0,0,0,3.54-21.43,42.74,42.74,0,0,0-6.28-19.88"/><path class="cls-1" d="M63.49,84.31a63.6,63.6,0,0,0-6.3,10.28,56.13,56.13,0,0,0-4,11,48.86,48.86,0,0,0-1.46,11.35,44.11,44.11,0,0,0,1.37,11.36c1.94-.25,3.9-.58,5.86-1s3.95-.94,5.92-1.55,4-1.3,5.93-2.09S74.73,122,76.68,121a77.19,77.19,0,0,0,6.86-3.85q3.28-2.07,6.27-4.39a73.46,73.46,0,0,0,5.63-4.85,69.62,69.62,0,0,0,5-5.23,67.82,67.82,0,0,1-11.16-2.19,59.25,59.25,0,0,1-10-3.86,50.86,50.86,0,0,1-8.66-5.44,44.53,44.53,0,0,1-7.05-6.87"/><path class="cls-1" d="M125.22.25c-2.3.2-4.62.5-6.94.92s-4.65,1-7,1.6-4.64,1.41-6.94,2.29-4.58,1.88-6.84,3-4.15,2.18-6.1,3.37-3.82,2.46-5.59,3.79-3.47,2.71-5.06,4.15-3.11,2.93-4.52,4.47a63.43,63.43,0,0,1,12.52,2,53.48,53.48,0,0,1,11.34,4.44,45,45,0,0,1,9.65,6.9,40.6,40.6,0,0,1,7.44,9.39l.25.44.23.44c.08.15.16.3.23.45s.15.3.23.44l.45,0,.45,0,.44,0,.45,0a78,78,0,0,1,14.13.4,69.55,69.55,0,0,1,13.41,2.93,61.61,61.61,0,0,1,12.23,5.49,54.25,54.25,0,0,1,10.53,8.08,52.8,52.8,0,0,0,6.1-11.8,42.91,42.91,0,0,0,2.54-12,36.35,36.35,0,0,0-1.15-11.64A35,35,0,0,0,172.8,19,38.26,38.26,0,0,0,164,9.84a46.6,46.6,0,0,0-11.4-6.14A57.26,57.26,0,0,0,139.41.51,67.68,67.68,0,0,0,125.22.25"/><path class="cls-2" d="M248.73,85a4.52,4.52,0,0,1-1.11,1.31,2.47,2.47,0,0,1-1.52.44,4,4,0,0,1-2.3-1,36.89,36.89,0,0,0-3.32-2.19,27.44,27.44,0,0,0-4.83-2.18,20.87,20.87,0,0,0-6.85-1,20.25,20.25,0,0,0-6.7,1,14.16,14.16,0,0,0-4.86,2.77,11.32,11.32,0,0,0-2.94,4.1,12.92,12.92,0,0,0-1,5.1,9.48,9.48,0,0,0,1.71,5.8,14.89,14.89,0,0,0,4.55,3.93A34.77,34.77,0,0,0,226,106c2.38.79,4.83,1.62,7.34,2.47s5,1.82,7.34,2.89a25.69,25.69,0,0,1,6.41,4,18.75,18.75,0,0,1,4.54,6,19.94,19.94,0,0,1,1.72,8.74,28.1,28.1,0,0,1-1.87,10.29,23.67,23.67,0,0,1-5.44,8.36,25.71,25.71,0,0,1-8.8,5.59,32.37,32.37,0,0,1-11.86,2,36.19,36.19,0,0,1-14.76-2.94,34.7,34.7,0,0,1-11.39-8l3.26-5.36A4.43,4.43,0,0,1,203.6,139a2.63,2.63,0,0,1,1.49-.44,4.66,4.66,0,0,1,2.8,1.31,48.5,48.5,0,0,0,3.93,2.88,30,30,0,0,0,5.71,2.89,22.59,22.59,0,0,0,8.18,1.31,21.5,21.5,0,0,0,7.17-1.11,15.26,15.26,0,0,0,5.33-3.12,13.51,13.51,0,0,0,3.35-4.8,16,16,0,0,0,1.17-6.24,10.49,10.49,0,0,0-1.72-6.2,14.3,14.3,0,0,0-4.52-4,31.44,31.44,0,0,0-6.38-2.77l-7.34-2.33a75.21,75.21,0,0,1-7.34-2.76,24,24,0,0,1-6.38-4.08,18.75,18.75,0,0,1-4.51-6.26,22.29,22.29,0,0,1-1.72-9.3,22.27,22.27,0,0,1,6.7-15.9,24,24,0,0,1,8.07-5.13,29.56,29.56,0,0,1,11-1.92,35.49,35.49,0,0,1,12.76,2.21,29.52,29.52,0,0,1,10.07,6.41Z"/><path class="cls-2" d="M290,95.49a30.42,30.42,0,0,1,11.68,2.15,24.69,24.69,0,0,1,8.86,6.12,27.22,27.22,0,0,1,5.59,9.58,41.49,41.49,0,0,1,0,25.14,27.21,27.21,0,0,1-5.59,9.56,24.23,24.23,0,0,1-8.86,6.08,33.09,33.09,0,0,1-23.36,0,24.39,24.39,0,0,1-8.88-6.08,27.18,27.18,0,0,1-5.65-9.56,40.69,40.69,0,0,1,0-25.14,27.18,27.18,0,0,1,5.65-9.58,24.86,24.86,0,0,1,8.88-6.12A30.46,30.46,0,0,1,290,95.49Zm0,52.66q8.75,0,13-5.85T307.33,126q0-10.54-4.31-16.43t-13-5.89a18.13,18.13,0,0,0-7.69,1.52,14.5,14.5,0,0,0-5.45,4.37,19.49,19.49,0,0,0-3.26,7,41.4,41.4,0,0,0,0,18.79,19.35,19.35,0,0,0,3.26,7,14.62,14.62,0,0,0,5.45,4.34A18.13,18.13,0,0,0,290,148.15Z"/><path class="cls-2" d="M333.2,155.43V105.28l-6.53-.76a5.48,5.48,0,0,1-2-.9,2.13,2.13,0,0,1-.78-1.78V97.59h9.32V91.88a26.07,26.07,0,0,1,1.43-9,18.31,18.31,0,0,1,4.07-6.65,17.39,17.39,0,0,1,6.38-4.1,23.59,23.59,0,0,1,8.39-1.4,22.55,22.55,0,0,1,7.34,1.16l-.23,5.19a1.33,1.33,0,0,1-1,1.4,11.75,11.75,0,0,1-2.62.23h-1.81a15.72,15.72,0,0,0-4.86.7,9.1,9.1,0,0,0-3.76,2.27,10.25,10.25,0,0,0-2.42,4.14,20.61,20.61,0,0,0-.84,6.35v5.42h17.07v7.51H343.63v50.33Z"/><path class="cls-2" d="M388,156.37q-7,0-10.75-3.91t-3.76-11.24V105.1H366.4a2.31,2.31,0,0,1-1.57-.55,2.14,2.14,0,0,1-.64-1.72V98.69l9.67-1.22,2.39-18.24a2.2,2.2,0,0,1,.76-1.42,2.39,2.39,0,0,1,1.63-.56h5.24V97.59h16.9v7.51h-16.9v35.42c0,2.49.6,4.33,1.81,5.54a6.3,6.3,0,0,0,4.66,1.8,8,8,0,0,0,2.82-.44,11.8,11.8,0,0,0,2.07-1c.58-.35,1.08-.67,1.49-1a2,2,0,0,1,1.07-.44,1.8,1.8,0,0,1,1.46,1l3,4.95a19.29,19.29,0,0,1-6.47,3.93A21.94,21.94,0,0,1,388,156.37Z"/><path class="cls-3" d="M458,85a4.66,4.66,0,0,1-1.1,1.31,2.49,2.49,0,0,1-1.52.44,4,4,0,0,1-2.3-1,36.89,36.89,0,0,0-3.32-2.19,27.44,27.44,0,0,0-4.83-2.18,20.87,20.87,0,0,0-6.85-1,20.2,20.2,0,0,0-6.7,1,14.16,14.16,0,0,0-4.86,2.77,11.23,11.23,0,0,0-2.95,4.1,13.1,13.1,0,0,0-1,5.1,9.48,9.48,0,0,0,1.72,5.8,14.89,14.89,0,0,0,4.55,3.93,35,35,0,0,0,6.4,2.83c2.39.79,4.84,1.62,7.34,2.47s5,1.82,7.35,2.89a25.63,25.63,0,0,1,6.4,4,18.63,18.63,0,0,1,4.55,6,20.08,20.08,0,0,1,1.72,8.74,28.1,28.1,0,0,1-1.87,10.29,23.7,23.7,0,0,1-5.45,8.36,25.57,25.57,0,0,1-8.79,5.59,32.37,32.37,0,0,1-11.86,2,36.24,36.24,0,0,1-14.77-2.94,34.76,34.76,0,0,1-11.38-8l3.26-5.36a4.43,4.43,0,0,1,1.13-1.07,2.6,2.6,0,0,1,1.49-.44,4.68,4.68,0,0,1,2.8,1.31,46.79,46.79,0,0,0,3.93,2.88,30,30,0,0,0,5.71,2.89A22.59,22.59,0,0,0,435,147a21.5,21.5,0,0,0,7.17-1.11,15.26,15.26,0,0,0,5.33-3.12,13.51,13.51,0,0,0,3.35-4.8,16,16,0,0,0,1.16-6.24,10.42,10.42,0,0,0-1.72-6.2,14.27,14.27,0,0,0-4.51-4,31.44,31.44,0,0,0-6.38-2.77L432,116.37a75.21,75.21,0,0,1-7.34-2.76,24,24,0,0,1-6.38-4.08,18.75,18.75,0,0,1-4.51-6.26,22.29,22.29,0,0,1-1.72-9.3,22.27,22.27,0,0,1,6.7-15.9,24,24,0,0,1,8.07-5.13,29.56,29.56,0,0,1,11-1.92,35.4,35.4,0,0,1,12.75,2.21,29.46,29.46,0,0,1,10.08,6.41Z"/><path class="cls-3" d="M498.71,95.49a26.21,26.21,0,0,1,9.78,1.78,21.9,21.9,0,0,1,7.75,5.12,23.32,23.32,0,0,1,5.1,8.27,32.08,32.08,0,0,1,1.83,11.22,6.75,6.75,0,0,1-.52,3.26,2.19,2.19,0,0,1-2,.82H481.4a32.78,32.78,0,0,0,1.52,9.73,20,20,0,0,0,3.84,6.9,15.44,15.44,0,0,0,5.83,4.13,19.86,19.86,0,0,0,7.57,1.37,22.29,22.29,0,0,0,6.73-.9,32,32,0,0,0,4.87-1.95,38.51,38.51,0,0,0,3.4-2,4.55,4.55,0,0,1,2.36-.9,2.27,2.27,0,0,1,2,1l2.92,3.78a19.37,19.37,0,0,1-4.61,4.05,28.29,28.29,0,0,1-5.73,2.83,37.41,37.41,0,0,1-6.32,1.66,38.63,38.63,0,0,1-6.47.55A29.94,29.94,0,0,1,488,154.18a24.81,24.81,0,0,1-8.92-6.06,27.89,27.89,0,0,1-5.85-9.87,40.11,40.11,0,0,1-2.1-13.52A34.43,34.43,0,0,1,473,113.2a27.15,27.15,0,0,1,5.45-9.29,25,25,0,0,1,8.68-6.18A28.59,28.59,0,0,1,498.71,95.49Zm.23,7.63q-7.51,0-11.83,4.34t-5.36,12h32.1a21,21,0,0,0-1-6.61,14.81,14.81,0,0,0-2.91-5.19,13.19,13.19,0,0,0-4.69-3.38A15.9,15.9,0,0,0,498.94,103.12Z"/><path class="cls-3" d="M536.4,155.43v-59h6.17a2.65,2.65,0,0,1,2.8,2.16l.81,6.4a33.37,33.37,0,0,1,8.6-6.87,22.29,22.29,0,0,1,11-2.62,21.24,21.24,0,0,1,8.53,1.6,16.52,16.52,0,0,1,6.18,4.54,20.32,20.32,0,0,1,3.76,7.08,31,31,0,0,1,1.28,9.15v37.57H575.14V117.86q0-6.7-3.06-10.4t-9.35-3.7a17.47,17.47,0,0,0-8.59,2.21,28.27,28.27,0,0,0-7.37,6v43.46Z"/><path class="cls-3" d="M635,106.15a2.32,2.32,0,0,1-2.16,1.28,4,4,0,0,1-2-.64c-.74-.43-1.64-.9-2.71-1.43a25.46,25.46,0,0,0-3.81-1.45,18.15,18.15,0,0,0-5.25-.67,15.31,15.31,0,0,0-4.71.67,11.14,11.14,0,0,0-3.59,1.83,8.09,8.09,0,0,0-2.27,2.71,7.35,7.35,0,0,0-.79,3.35,5.62,5.62,0,0,0,1.31,3.79,11.47,11.47,0,0,0,3.47,2.62,30,30,0,0,0,4.89,2c1.83.56,3.7,1.17,5.63,1.81s3.79,1.35,5.62,2.12a20.51,20.51,0,0,1,4.89,2.92,13.31,13.31,0,0,1,3.47,4.28,13.16,13.16,0,0,1,1.31,6.09,19.3,19.3,0,0,1-1.46,7.54,16.5,16.5,0,0,1-4.31,6,20.7,20.7,0,0,1-7,4,28.74,28.74,0,0,1-9.55,1.46,29.81,29.81,0,0,1-11.19-2,28.26,28.26,0,0,1-8.5-5.16l2.44-4a3.68,3.68,0,0,1,1.11-1.17,3.13,3.13,0,0,1,1.69-.4,3.89,3.89,0,0,1,2.21.81c.78.55,1.72,1.15,2.83,1.81a21.12,21.12,0,0,0,4,1.8,18.1,18.1,0,0,0,5.91.82,16,16,0,0,0,5.3-.79,11.08,11.08,0,0,0,3.79-2.12,8.45,8.45,0,0,0,2.24-3.09,9.54,9.54,0,0,0,.73-3.73,6.21,6.21,0,0,0-1.31-4.05,11,11,0,0,0-3.47-2.74,29.3,29.3,0,0,0-4.92-2q-2.77-.84-5.65-1.77c-1.92-.62-3.81-1.33-5.65-2.13a19.86,19.86,0,0,1-4.92-3,13.45,13.45,0,0,1-3.47-4.46,14.42,14.42,0,0,1-1.31-6.43,15.58,15.58,0,0,1,1.4-6.5,16,16,0,0,1,4.07-5.48,20.07,20.07,0,0,1,6.59-3.75,26.12,26.12,0,0,1,8.91-1.4,28.3,28.3,0,0,1,10.46,1.83,24.91,24.91,0,0,1,8,5Z"/><path class="cls-3" d="M675.11,95.49a26.21,26.21,0,0,1,9.78,1.78,21.9,21.9,0,0,1,7.75,5.12,23.32,23.32,0,0,1,5.1,8.27,32.08,32.08,0,0,1,1.83,11.22,6.75,6.75,0,0,1-.52,3.26,2.19,2.19,0,0,1-2,.82H657.8a32.78,32.78,0,0,0,1.52,9.73,20,20,0,0,0,3.84,6.9,15.52,15.52,0,0,0,5.83,4.13,19.86,19.86,0,0,0,7.57,1.37,22.29,22.29,0,0,0,6.73-.9,31.57,31.57,0,0,0,4.87-1.95,38.51,38.51,0,0,0,3.4-2,4.55,4.55,0,0,1,2.36-.9,2.27,2.27,0,0,1,2,1l2.92,3.78a19.51,19.51,0,0,1-4.6,4.05,28.63,28.63,0,0,1-5.74,2.83,37.41,37.41,0,0,1-6.32,1.66,38.63,38.63,0,0,1-6.47.55,29.94,29.94,0,0,1-11.27-2.07,24.81,24.81,0,0,1-8.92-6.06,27.89,27.89,0,0,1-5.85-9.87,40.11,40.11,0,0,1-2.1-13.52,34.43,34.43,0,0,1,1.89-11.53,27.31,27.31,0,0,1,5.45-9.29,25,25,0,0,1,8.68-6.18A28.59,28.59,0,0,1,675.11,95.49Zm.23,7.63q-7.51,0-11.83,4.34t-5.36,12h32.1a21,21,0,0,0-1-6.61,14.81,14.81,0,0,0-2.91-5.19,13.19,13.19,0,0,0-4.69-3.38A15.9,15.9,0,0,0,675.34,103.12Z"/></svg>